<?xml version="1.0" encoding="utf-8"?>
<!-- Generator: Adobe Illustrator 25.3.0, SVG Export Plug-In . SVG Version: 6.00 Build 0)  -->
<svg version="1.1" xmlns="http://www.w3.org/2000/svg" xmlns:xlink="http://www.w3.org/1999/xlink" x="0px" y="0px"
	 viewBox="0 0 200 200" style="enable-background:new 0 0 200 200;" xml:space="preserve">
<style type="text/css">
	.st0{fill:url(#SVGID_1_);}
	.st1{fill:url(#SVGID_2_);stroke:#FFFFFF;stroke-width:10;stroke-miterlimit:10;}
	.st2{fill:#FFFFFF;stroke:#ED1C24;stroke-width:10;stroke-miterlimit:10;}
	.st3{fill:#FFFFFF;stroke:#ED1C24;stroke-width:10;stroke-linecap:round;stroke-linejoin:round;stroke-miterlimit:10;}
	.st4{fill:none;stroke:#000000;stroke-width:10;stroke-linecap:round;stroke-linejoin:round;stroke-miterlimit:10;}
	.st5{fill:none;stroke:#000000;stroke-width:10;stroke-linejoin:round;stroke-miterlimit:10;}
	.st6{fill:#FBB040;stroke:#231F20;stroke-width:10;stroke-miterlimit:10;}
	.st7{fill:#FBB040;}
	.st8{fill:none;stroke:#FFFFFF;stroke-width:10;stroke-miterlimit:10;}
	.st9{fill:none;stroke:#000000;stroke-miterlimit:10;}
	.st10{fill:none;stroke:#000000;stroke-width:10;stroke-linecap:round;stroke-miterlimit:10;}
	.st11{fill:#FBB040;stroke:#231F20;stroke-width:10;stroke-linecap:round;stroke-linejoin:round;stroke-miterlimit:10;}
	.st12{fill:#0B2F15;}
	.st13{fill:url(#SVGID_3_);stroke:#FFFFFF;stroke-miterlimit:10;}
	.st14{fill:#FBB040;stroke:#FFFFFF;stroke-width:10;stroke-miterlimit:10;}
	.st15{fill:#FC3622;}
	.st16{fill:#FC3622;stroke:url(#SVGID_4_);stroke-miterlimit:10;}
	.st17{fill:#FC3622;stroke:url(#SVGID_5_);stroke-miterlimit:10;}
	.st18{fill:#FC3622;stroke:url(#SVGID_6_);stroke-miterlimit:10;}
	.st19{fill:#FC3622;stroke:url(#SVGID_7_);stroke-miterlimit:10;}
	.st20{fill:#FC3622;stroke:url(#SVGID_8_);stroke-miterlimit:10;}
	.st21{fill:url(#SVGID_9_);}
	.st22{fill:url(#SVGID_10_);}
	.st23{fill:#662D91;}
	.st24{fill:#8DC63F;}
	.st25{fill:#BE1E2D;}
	.st26{fill:#FBB040;stroke:#333333;stroke-width:5;stroke-miterlimit:10;}
	.st27{fill:#FFD700;}
	.st28{fill:none;stroke:#231F20;stroke-width:10;stroke-linecap:round;stroke-linejoin:round;stroke-miterlimit:10;}
	.st29{fill:#FFD700;stroke:#231F20;stroke-width:10;stroke-linecap:round;stroke-linejoin:round;stroke-miterlimit:10;}
	.st30{fill:#FBB040;stroke:#333333;stroke-width:10;stroke-miterlimit:10;}
	.st31{fill:#FFD700;stroke:#231F20;stroke-width:10;stroke-miterlimit:10;}
	.st32{fill:#FFFFFF;stroke:#222222;stroke-width:10;stroke-miterlimit:10;}
	.st33{fill:#FFFFFF;stroke:#231F20;stroke-width:10;stroke-miterlimit:10;}
	.st34{fill:#FFD700;stroke:#333333;stroke-width:10;stroke-miterlimit:10;}
	.st35{fill:none;stroke:#231F20;stroke-width:10;stroke-miterlimit:10;}
	.st36{fill:#FFE573;stroke:#333333;stroke-width:10;stroke-miterlimit:10;}
	.st37{fill:#D01700;stroke:#231F20;stroke-width:10;stroke-miterlimit:10;}
	.st38{fill:none;stroke:#F7941D;stroke-width:10;stroke-miterlimit:10;}
	.st39{fill:#FFD700;stroke:#231F20;stroke-width:10;stroke-linejoin:round;stroke-miterlimit:10;}
	.st40{fill:none;stroke:#FFD700;stroke-width:10;stroke-miterlimit:10;}
	.st41{fill:#FFEB00;}
	.st42{fill:#231F20;}
</style>
<g id="Layer_1">
	<path class="st26" d="M54.16,157.5c0,0,41.18,28.89,53.8,8.44c1.74-2.82,1.75-6.41,0.03-9.24c-2.45-4.05-7.79-9.49-19.16-11.4
		C63.1,140.98,54.16,157.5,54.16,157.5z"/>
	<path class="st26" d="M159.78,59.89c0,0-5.88,21.71-10.78,32c-3.31,6.96,5.15,14.15,10.97,18.06c3.4,2.29,8.04,1.35,10.22-2.13
		C174.34,101.22,176.91,87.19,159.78,59.89z"/>
	<path class="st26" d="M34.92,126.97c0,0,6.86,31.1,19.84,33.31c0,0,41.71-6.57,41.88-16.65c0,0,0.49-13.71-1.47-14.2
		C93.21,128.93,31.98,107.13,34.92,126.97z"/>
	<path class="st26" d="M128.31,36.97c0,0,32.55,0,34.75,24.12c0,0,2.88,13.71-17.45,36.49h-14L128.31,36.97z"/>
	<path class="st26" d="M79.24,39.15c0,0,28.41-18.22,41.88-13.57s12.73,71.51,12.73,71.51l-17.72,3.86
		C116.14,100.96,80.75,39.98,79.24,39.15z"/>
	<path class="st26" d="M35.17,76.52c0,0-17.14,40.41-8.33,45.06c8.15,4.3,42.58,16.96,66.63,12.68c2.84-0.51,4.81-3.18,4.39-6.03
		c-0.56-3.81-0.3-9.65,3.9-16.2C109.13,100.52,42.51,61.09,35.17,76.52z"/>
	<path class="st26" d="M33.7,71.13c0,0,20.19-34.98,38.96-34.14c0.4,0.02,0.8,0.05,1.2,0.1c19.1,2.45,43.35,62.76,43.35,62.76
		l-18.04,18.8C99.17,118.64,27.33,92.68,33.7,71.13z"/>
</g>
<g id="Layer_2">
</g>
</svg>
