<?xml version="1.0" encoding="utf-8"?>
<!-- Generator: Adobe Illustrator 25.3.0, SVG Export Plug-In . SVG Version: 6.00 Build 0)  -->
<svg version="1.1" xmlns="http://www.w3.org/2000/svg" xmlns:xlink="http://www.w3.org/1999/xlink" x="0px" y="0px"
	 viewBox="0 0 200 200" style="enable-background:new 0 0 200 200;" xml:space="preserve">
<style type="text/css">
	.st0{fill:url(#SVGID_1_);}
	.st1{fill:url(#SVGID_2_);stroke:#FFFFFF;stroke-width:10;stroke-miterlimit:10;}
	.st2{fill:#FFFFFF;stroke:#ED1C24;stroke-width:10;stroke-miterlimit:10;}
	.st3{fill:#FFFFFF;stroke:#ED1C24;stroke-width:10;stroke-linecap:round;stroke-linejoin:round;stroke-miterlimit:10;}
	.st4{fill:none;stroke:#000000;stroke-width:10;stroke-linecap:round;stroke-linejoin:round;stroke-miterlimit:10;}
	.st5{fill:none;stroke:#000000;stroke-width:10;stroke-linejoin:round;stroke-miterlimit:10;}
	.st6{fill:#FBB040;stroke:#231F20;stroke-width:10;stroke-miterlimit:10;}
	.st7{fill:#FBB040;}
	.st8{fill:none;stroke:#FFFFFF;stroke-width:10;stroke-miterlimit:10;}
	.st9{fill:none;stroke:#000000;stroke-miterlimit:10;}
	.st10{fill:none;stroke:#000000;stroke-width:10;stroke-linecap:round;stroke-miterlimit:10;}
	.st11{fill:#FBB040;stroke:#231F20;stroke-width:10;stroke-linecap:round;stroke-linejoin:round;stroke-miterlimit:10;}
	.st12{fill:#0B2F15;}
	.st13{fill:url(#SVGID_3_);stroke:#FFFFFF;stroke-miterlimit:10;}
	.st14{fill:#FBB040;stroke:#FFFFFF;stroke-width:10;stroke-miterlimit:10;}
	.st15{fill:#FC3622;}
	.st16{fill:#FC3622;stroke:url(#SVGID_4_);stroke-miterlimit:10;}
	.st17{fill:#FC3622;stroke:url(#SVGID_5_);stroke-miterlimit:10;}
	.st18{fill:#FC3622;stroke:url(#SVGID_6_);stroke-miterlimit:10;}
	.st19{fill:#FC3622;stroke:url(#SVGID_7_);stroke-miterlimit:10;}
	.st20{fill:#FC3622;stroke:url(#SVGID_8_);stroke-miterlimit:10;}
	.st21{fill:url(#SVGID_9_);}
	.st22{fill:url(#SVGID_10_);}
	.st23{fill:#662D91;}
	.st24{fill:#8DC63F;}
	.st25{fill:#BE1E2D;}
	.st26{fill:#FBB040;stroke:#333333;stroke-width:5;stroke-miterlimit:10;}
	.st27{fill:#FFD700;}
	.st28{fill:none;stroke:#231F20;stroke-width:10;stroke-linecap:round;stroke-linejoin:round;stroke-miterlimit:10;}
	.st29{fill:#FFD700;stroke:#231F20;stroke-width:10;stroke-linecap:round;stroke-linejoin:round;stroke-miterlimit:10;}
	.st30{fill:#FBB040;stroke:#333333;stroke-width:10;stroke-miterlimit:10;}
	.st31{fill:#FFD700;stroke:#231F20;stroke-width:10;stroke-miterlimit:10;}
	.st32{fill:#FFFFFF;stroke:#222222;stroke-width:10;stroke-miterlimit:10;}
	.st33{fill:#FFFFFF;stroke:#231F20;stroke-width:10;stroke-miterlimit:10;}
	.st34{fill:#FFD700;stroke:#333333;stroke-width:10;stroke-miterlimit:10;}
	.st35{fill:none;stroke:#231F20;stroke-width:10;stroke-miterlimit:10;}
	.st36{fill:#FFE573;stroke:#333333;stroke-width:10;stroke-miterlimit:10;}
	.st37{fill:#D01700;stroke:#231F20;stroke-width:10;stroke-miterlimit:10;}
	.st38{fill:none;stroke:#F7941D;stroke-width:10;stroke-miterlimit:10;}
	.st39{fill:#FFD700;stroke:#231F20;stroke-width:10;stroke-linejoin:round;stroke-miterlimit:10;}
	.st40{fill:none;stroke:#FFD700;stroke-width:10;stroke-miterlimit:10;}
</style>
<g id="Layer_1">
	<path class="st26" d="M55.03,162.52c0,0,41.18,28.89,53.8,8.44c1.74-2.82,1.75-6.41,0.03-9.24c-2.45-4.05-7.79-9.49-19.16-11.4
		C63.97,146,55.03,162.52,55.03,162.52z"/>
	<path class="st26" d="M171.06,112.85c-2.18,3.47-6.81,4.42-10.22,2.12c-5.09-3.42-12.21-9.36-11.68-15.46
		c0.07-0.87,0.3-1.74,0.72-2.6c1.5-3.16,3.09-7.38,4.57-11.73c1.41,0.2,2.85,0.32,4.31,0.36c0.31,0.01,0.63,0.01,0.94,0.01
		c3.74,0,7.35-0.55,10.76-1.59C176.3,99.14,174.11,108,171.06,112.85z"/>
	<path class="st26" d="M35.8,131.99c0,0,6.86,31.1,19.84,33.31c0,0,41.71-6.57,41.88-16.65c0,0,0.49-13.71-1.47-14.2
		C94.08,133.95,32.86,112.15,35.8,131.99z"/>
	<path class="st26" d="M158.76,85.54c-2.2,4.09-5.28,8.77-9.6,13.97c-0.85,1.01-1.73,2.04-2.67,3.09h-14l-1.69-30.91
		c0.97,1.22,2.02,2.36,3.14,3.44c5.48,5.3,12.59,8.93,20.51,10.05C155.86,85.38,157.3,85.5,158.76,85.54z"/>
	<path class="st26" d="M134.73,102.11l-2.24,0.49l-15.47,3.38c0,0-34.85-60.03-36.86-61.78c-0.01-0.01-0.02-0.02-0.04-0.03
		c0,0,28.41-18.22,41.88-13.57c1.36,0.47,2.57,1.57,3.65,3.17c-1.95,4.5-3.03,9.47-3.03,14.69c0,8.8,3.06,16.88,8.18,23.23
		c0.97,1.22,2.02,2.36,3.14,3.44C134.87,89.66,134.73,102.11,134.73,102.11z"/>
	<path class="st26" d="M36.04,81.54c0,0-17.14,40.41-8.33,45.06c8.15,4.3,42.58,16.96,66.63,12.68c2.84-0.51,4.81-3.18,4.39-6.03
		c-0.56-3.81-0.3-9.65,3.9-16.2C110,105.54,43.39,66.11,36.04,81.54z"/>
	<path class="st26" d="M34.57,76.15c0,0,20.19-34.98,38.96-34.14c0.4,0.02,0.8,0.05,1.2,0.1c19.1,2.45,43.35,62.76,43.35,62.76
		l-18.04,18.8C100.05,123.66,28.2,97.71,34.57,76.15z"/>
</g>
<g id="Layer_2">
</g>
</svg>
