<?xml version="1.0" encoding="utf-8"?>
<!-- Generator: Adobe Illustrator 25.3.0, SVG Export Plug-In . SVG Version: 6.00 Build 0)  -->
<svg version="1.1" xmlns="http://www.w3.org/2000/svg" xmlns:xlink="http://www.w3.org/1999/xlink" x="0px" y="0px"
	 viewBox="0 0 200 200" style="enable-background:new 0 0 200 200;" xml:space="preserve">
<style type="text/css">
	.st0{fill:url(#SVGID_1_);}
	.st1{fill:url(#SVGID_2_);stroke:#FFFFFF;stroke-width:10;stroke-miterlimit:10;}
	.st2{fill:#FFFFFF;stroke:#ED1C24;stroke-width:10;stroke-miterlimit:10;}
	.st3{fill:#FFFFFF;stroke:#ED1C24;stroke-width:10;stroke-linecap:round;stroke-linejoin:round;stroke-miterlimit:10;}
	.st4{fill:none;stroke:#000000;stroke-width:10;stroke-linecap:round;stroke-linejoin:round;stroke-miterlimit:10;}
	.st5{fill:none;stroke:#000000;stroke-width:10;stroke-linejoin:round;stroke-miterlimit:10;}
	.st6{fill:#FBB040;stroke:#231F20;stroke-width:10;stroke-miterlimit:10;}
	.st7{fill:#FBB040;}
	.st8{fill:none;stroke:#FFFFFF;stroke-width:10;stroke-miterlimit:10;}
	.st9{fill:none;stroke:#000000;stroke-miterlimit:10;}
	.st10{fill:none;stroke:#000000;stroke-width:10;stroke-linecap:round;stroke-miterlimit:10;}
	.st11{fill:#FBB040;stroke:#231F20;stroke-width:10;stroke-linecap:round;stroke-linejoin:round;stroke-miterlimit:10;}
	.st12{fill:#0B2F15;}
	.st13{fill:url(#SVGID_3_);stroke:#FFFFFF;stroke-miterlimit:10;}
	.st14{fill:#FBB040;stroke:#FFFFFF;stroke-width:10;stroke-miterlimit:10;}
	.st15{fill:#FC3622;}
	.st16{fill:#FC3622;stroke:url(#SVGID_4_);stroke-miterlimit:10;}
	.st17{fill:#FC3622;stroke:url(#SVGID_5_);stroke-miterlimit:10;}
	.st18{fill:#FC3622;stroke:url(#SVGID_6_);stroke-miterlimit:10;}
	.st19{fill:#FC3622;stroke:url(#SVGID_7_);stroke-miterlimit:10;}
	.st20{fill:#FC3622;stroke:url(#SVGID_8_);stroke-miterlimit:10;}
	.st21{fill:url(#SVGID_9_);}
	.st22{fill:url(#SVGID_10_);}
	.st23{fill:#662D91;}
	.st24{fill:#8DC63F;}
	.st25{fill:#BE1E2D;}
	.st26{fill:#FBB040;stroke:#333333;stroke-width:5;stroke-miterlimit:10;}
	.st27{fill:#FFD700;}
	.st28{fill:none;stroke:#231F20;stroke-width:10;stroke-linecap:round;stroke-linejoin:round;stroke-miterlimit:10;}
	.st29{fill:#FFD700;stroke:#231F20;stroke-width:10;stroke-linecap:round;stroke-linejoin:round;stroke-miterlimit:10;}
	.st30{fill:#FBB040;stroke:#333333;stroke-width:10;stroke-miterlimit:10;}
	.st31{fill:#FFD700;stroke:#231F20;stroke-width:10;stroke-miterlimit:10;}
	.st32{fill:#FFFFFF;stroke:#222222;stroke-width:10;stroke-miterlimit:10;}
	.st33{fill:#FFFFFF;stroke:#231F20;stroke-width:10;stroke-miterlimit:10;}
	.st34{fill:#FFD700;stroke:#333333;stroke-width:10;stroke-miterlimit:10;}
	.st35{fill:none;stroke:#231F20;stroke-width:10;stroke-miterlimit:10;}
	.st36{fill:#FFE573;stroke:#333333;stroke-width:10;stroke-miterlimit:10;}
	.st37{fill:#D01700;stroke:#231F20;stroke-width:10;stroke-miterlimit:10;}
	.st38{fill:none;stroke:#F7941D;stroke-width:10;stroke-miterlimit:10;}
	.st39{fill:#FFD700;stroke:#231F20;stroke-width:10;stroke-linejoin:round;stroke-miterlimit:10;}
	.st40{fill:none;stroke:#FFD700;stroke-width:10;stroke-miterlimit:10;}
	.st41{fill:#FFEB00;}
	.st42{fill:#231F20;}
</style>
<g id="Layer_1">
	<linearGradient id="SVGID_1_" gradientUnits="userSpaceOnUse" x1="35.6659" y1="155.0795" x2="164.0723" y2="155.0795">
		<stop  offset="0" style="stop-color:#FFF33B"/>
		<stop  offset="0.0401" style="stop-color:#FEE72E"/>
		<stop  offset="0.1171" style="stop-color:#FED51B"/>
		<stop  offset="0.1964" style="stop-color:#FDCA10"/>
		<stop  offset="0.2809" style="stop-color:#FDC70C"/>
		<stop  offset="0.6685" style="stop-color:#F3903F"/>
		<stop  offset="0.8876" style="stop-color:#ED683C"/>
		<stop  offset="1" style="stop-color:#E93E3A"/>
	</linearGradient>
	<path style="fill:url(#SVGID_1_);stroke:#FFFFFF;stroke-miterlimit:10;" d="M164.07,163.99c0,12.3-28.69,22.28-64.06,22.28
		c-35.39,0-64.08-9.98-64.08-22.28h-0.27v-40.11h0.94c3.82,9.06,23.29,16.35,48.54,18.43c4.76,0.39,9.74,0.6,14.86,0.6
		c5.12,0,10.1-0.21,14.86-0.6c22.89-1.9,46.82-13.57,48.48-17.39v35.7C163.83,161.72,164.07,162.85,164.07,163.99z"/>
	<path class="st6" d="M111.98,140.85c-4.29,0.42-8.77,0.64-13.38,0.64c-4.61,0-9.09-0.22-13.38-0.64c4.29-0.43,8.77-0.65,13.38-0.65
		C103.21,140.2,107.69,140.42,111.98,140.85z"/>
	<path class="st14" d="M157.05,123.89c0,1.72-0.22,3.4-0.66,5.05c-3.59,13.55-21.38,24.42-44.41,27.56
		c-4.37,0.59-8.92,0.9-13.61,0.9c-4.69,0-9.25-0.31-13.61-0.9c-23.13-3.13-40.96-14.09-44.46-27.71c-0.41-1.6-0.62-3.23-0.62-4.9
		c0-18.51,26.28-33.5,58.7-33.5C130.77,90.38,157.05,105.38,157.05,123.89z"/>
	<circle class="st15" cx="43.46" cy="123.89" r="7.8"/>
	<circle class="st15" cx="52.26" cy="136.37" r="7.8"/>
	<circle class="st15" cx="64.06" cy="143.86" r="7.8"/>
	<circle class="st15" cx="77.1" cy="149.42" r="7.8"/>
	<circle class="st15" cx="91.66" cy="152.06" r="7.8"/>
	<circle class="st15" cx="103.63" cy="151.66" r="7.8"/>
	<circle class="st15" cx="116.4" cy="150.42" r="7.8"/>
	<circle class="st15" cx="129.26" cy="146.26" r="7.8"/>
	<circle class="st15" cx="141.74" cy="139.2" r="7.8"/>
	<circle class="st15" cx="150.29" cy="131.38" r="7.8"/>
	<circle class="st15" cx="156.28" cy="123.89" r="7.8"/>
	<circle class="st15" cx="155.35" cy="109.64" r="7.8"/>
	<circle class="st15" cx="79.1" cy="93.39" r="7.8"/>
	<circle class="st15" cx="59.46" cy="95.33" r="7.8"/>
	<circle class="st15" cx="111.04" cy="94.33" r="7.8"/>
	<circle class="st15" cx="129.26" cy="95.33" r="7.8"/>
	<circle class="st15" cx="146.47" cy="101.22" r="7.8"/>
	<circle class="st15" cx="41.71" cy="112.64" r="7.8"/>
	<circle class="st15" cx="49.51" cy="101.19" r="7.8"/>
	<linearGradient id="SVGID_2_" gradientUnits="userSpaceOnUse" x1="61.657" y1="33.4101" x2="70.4534" y2="33.4101">
		<stop  offset="0" style="stop-color:#FFF33B"/>
		<stop  offset="0.0401" style="stop-color:#FEE72E"/>
		<stop  offset="0.1171" style="stop-color:#FED51B"/>
		<stop  offset="0.1964" style="stop-color:#FDCA10"/>
		<stop  offset="0.2809" style="stop-color:#FDC70C"/>
		<stop  offset="0.6685" style="stop-color:#F3903F"/>
		<stop  offset="0.8876" style="stop-color:#ED683C"/>
		<stop  offset="1" style="stop-color:#E93E3A"/>
	</linearGradient>
	<ellipse style="fill:#FC3622;stroke:url(#SVGID_2_);stroke-miterlimit:10;" cx="66.06" cy="33.41" rx="3.9" ry="11.95"/>
	<linearGradient id="SVGID_3_" gradientUnits="userSpaceOnUse" x1="94.4331" y1="19.0909" x2="103.2295" y2="19.0909">
		<stop  offset="0" style="stop-color:#FFF33B"/>
		<stop  offset="0.0401" style="stop-color:#FEE72E"/>
		<stop  offset="0.1171" style="stop-color:#FED51B"/>
		<stop  offset="0.1964" style="stop-color:#FDCA10"/>
		<stop  offset="0.2809" style="stop-color:#FDC70C"/>
		<stop  offset="0.6685" style="stop-color:#F3903F"/>
		<stop  offset="0.8876" style="stop-color:#ED683C"/>
		<stop  offset="1" style="stop-color:#E93E3A"/>
	</linearGradient>
	<ellipse style="fill:#FC3622;stroke:url(#SVGID_3_);stroke-miterlimit:10;" cx="98.83" cy="19.09" rx="3.9" ry="5.98"/>
	<linearGradient id="SVGID_4_" gradientUnits="userSpaceOnUse" x1="132.6574" y1="37.4101" x2="141.4539" y2="37.4101">
		<stop  offset="0" style="stop-color:#FFF33B"/>
		<stop  offset="0.0401" style="stop-color:#FEE72E"/>
		<stop  offset="0.1171" style="stop-color:#FED51B"/>
		<stop  offset="0.1964" style="stop-color:#FDCA10"/>
		<stop  offset="0.2809" style="stop-color:#FDC70C"/>
		<stop  offset="0.6685" style="stop-color:#F3903F"/>
		<stop  offset="0.8876" style="stop-color:#ED683C"/>
		<stop  offset="1" style="stop-color:#E93E3A"/>
	</linearGradient>
	<ellipse class="st16" cx="137.06" cy="37.41" rx="3.9" ry="11.95"/>
	<linearGradient id="SVGID_5_" gradientUnits="userSpaceOnUse" x1="112.0063" y1="54.5126" x2="120.8028" y2="54.5126">
		<stop  offset="0" style="stop-color:#FFF33B"/>
		<stop  offset="0.0401" style="stop-color:#FEE72E"/>
		<stop  offset="0.1171" style="stop-color:#FED51B"/>
		<stop  offset="0.1964" style="stop-color:#FDCA10"/>
		<stop  offset="0.2809" style="stop-color:#FDC70C"/>
		<stop  offset="0.6685" style="stop-color:#F3903F"/>
		<stop  offset="0.8876" style="stop-color:#ED683C"/>
		<stop  offset="1" style="stop-color:#E93E3A"/>
	</linearGradient>
	<ellipse class="st17" cx="116.4" cy="54.51" rx="3.9" ry="11.95"/>
	<linearGradient id="SVGID_6_" gradientUnits="userSpaceOnUse" x1="79.4642" y1="54.5126" x2="88.2606" y2="54.5126">
		<stop  offset="0" style="stop-color:#FFF33B"/>
		<stop  offset="0.0401" style="stop-color:#FEE72E"/>
		<stop  offset="0.1171" style="stop-color:#FED51B"/>
		<stop  offset="0.1964" style="stop-color:#FDCA10"/>
		<stop  offset="0.2809" style="stop-color:#FDC70C"/>
		<stop  offset="0.6685" style="stop-color:#F3903F"/>
		<stop  offset="0.8876" style="stop-color:#ED683C"/>
		<stop  offset="1" style="stop-color:#E93E3A"/>
	</linearGradient>
	<ellipse class="st18" cx="83.86" cy="54.51" rx="3.9" ry="11.95"/>
	<linearGradient id="SVGID_7_" gradientUnits="userSpaceOnUse" x1="130.1814" y1="79.378" x2="142.7399" y2="79.378">
		<stop  offset="0" style="stop-color:#FFF33B"/>
		<stop  offset="0.0401" style="stop-color:#FEE72E"/>
		<stop  offset="0.1171" style="stop-color:#FED51B"/>
		<stop  offset="0.1964" style="stop-color:#FDCA10"/>
		<stop  offset="0.2809" style="stop-color:#FDC70C"/>
		<stop  offset="0.6685" style="stop-color:#F3903F"/>
		<stop  offset="0.8876" style="stop-color:#ED683C"/>
		<stop  offset="1" style="stop-color:#E93E3A"/>
	</linearGradient>
	<path style="fill:url(#SVGID_7_);" d="M137.86,115.92h-2.8c-2.7,0-4.88-2.19-4.88-4.88V47.72c0-2.7,2.19-4.88,4.88-4.88h2.8
		c2.7,0,4.88,2.19,4.88,4.88v63.33C142.74,113.74,140.55,115.92,137.86,115.92z"/>
	<linearGradient id="SVGID_8_" gradientUnits="userSpaceOnUse" x1="93.1761" y1="61.3419" x2="105.7345" y2="61.3419">
		<stop  offset="0" style="stop-color:#2484C6"/>
		<stop  offset="1" style="stop-color:#2484C6;stop-opacity:0"/>
	</linearGradient>
	<path style="fill:url(#SVGID_8_);" d="M100.85,97.89h-2.8c-2.7,0-4.88-2.19-4.88-4.88V29.68c0-2.7,2.19-4.88,4.88-4.88h2.8
		c2.7,0,4.88,2.19,4.88,4.88V93C105.73,95.7,103.55,97.89,100.85,97.89z"/>
	<path class="st23" d="M117.8,131.87h-2.8c-2.7,0-4.88-2.19-4.88-4.88V63.67c0-2.7,2.19-4.88,4.88-4.88h2.8
		c2.7,0,4.88,2.19,4.88,4.88v63.33C122.68,129.69,120.5,131.87,117.8,131.87z"/>
	<path class="st24" d="M85.78,132.76h-2.8c-2.7,0-4.88-2.19-4.88-4.88V64.55c0-2.7,2.19-4.88,4.88-4.88h2.8
		c2.7,0,4.88,2.19,4.88,4.88v63.33C90.66,130.57,88.47,132.76,85.78,132.76z"/>
	<path class="st25" d="M68.01,113.17h-2.8c-2.7,0-4.88-2.19-4.88-4.88V44.96c0-2.7,2.19-4.88,4.88-4.88h2.8
		c2.7,0,4.88,2.19,4.88,4.88v63.33C72.89,110.98,70.7,113.17,68.01,113.17z"/>
</g>
<g id="Layer_2">
</g>
</svg>
