<?xml version="1.0" encoding="utf-8"?>
<!-- Generator: Adobe Illustrator 25.3.0, SVG Export Plug-In . SVG Version: 6.00 Build 0)  -->
<svg version="1.1" xmlns="http://www.w3.org/2000/svg" xmlns:xlink="http://www.w3.org/1999/xlink" x="0px" y="0px"
	 viewBox="0 0 200 200" style="enable-background:new 0 0 200 200;" xml:space="preserve">
<style type="text/css">
	.st0{fill:url(#SVGID_1_);}
	.st1{fill:url(#SVGID_2_);stroke:#FFFFFF;stroke-width:10;stroke-miterlimit:10;}
	.st2{fill:#FFFFFF;stroke:#ED1C24;stroke-width:10;stroke-miterlimit:10;}
	.st3{fill:#FFFFFF;stroke:#ED1C24;stroke-width:10;stroke-linecap:round;stroke-linejoin:round;stroke-miterlimit:10;}
	.st4{fill:none;stroke:#000000;stroke-width:10;stroke-linecap:round;stroke-linejoin:round;stroke-miterlimit:10;}
	.st5{fill:none;stroke:#000000;stroke-width:10;stroke-linejoin:round;stroke-miterlimit:10;}
	.st6{fill:#FBB040;stroke:#231F20;stroke-width:10;stroke-miterlimit:10;}
	.st7{fill:#FBB040;}
	.st8{fill:none;stroke:#FFFFFF;stroke-width:10;stroke-miterlimit:10;}
	.st9{fill:none;stroke:#000000;stroke-miterlimit:10;}
	.st10{fill:none;stroke:#000000;stroke-width:10;stroke-linecap:round;stroke-miterlimit:10;}
	.st11{fill:#FBB040;stroke:#231F20;stroke-width:10;stroke-linecap:round;stroke-linejoin:round;stroke-miterlimit:10;}
	.st12{fill:#0B2F15;}
	.st13{fill:url(#SVGID_3_);stroke:#FFFFFF;stroke-miterlimit:10;}
	.st14{fill:#FBB040;stroke:#FFFFFF;stroke-width:10;stroke-miterlimit:10;}
	.st15{fill:#FC3622;}
	.st16{fill:#FC3622;stroke:url(#SVGID_4_);stroke-miterlimit:10;}
	.st17{fill:#FC3622;stroke:url(#SVGID_5_);stroke-miterlimit:10;}
	.st18{fill:#FC3622;stroke:url(#SVGID_6_);stroke-miterlimit:10;}
	.st19{fill:#FC3622;stroke:url(#SVGID_7_);stroke-miterlimit:10;}
	.st20{fill:#FC3622;stroke:url(#SVGID_8_);stroke-miterlimit:10;}
	.st21{fill:url(#SVGID_9_);}
	.st22{fill:url(#SVGID_10_);}
	.st23{fill:#662D91;}
	.st24{fill:#8DC63F;}
	.st25{fill:#BE1E2D;}
	.st26{fill:#FBB040;stroke:#333333;stroke-width:5;stroke-miterlimit:10;}
	.st27{fill:#FFD700;}
	.st28{fill:none;stroke:#231F20;stroke-width:10;stroke-linecap:round;stroke-linejoin:round;stroke-miterlimit:10;}
	.st29{fill:#FFD700;stroke:#231F20;stroke-width:10;stroke-linecap:round;stroke-linejoin:round;stroke-miterlimit:10;}
	.st30{fill:#FBB040;stroke:#333333;stroke-width:10;stroke-miterlimit:10;}
	.st31{fill:#FFD700;stroke:#231F20;stroke-width:10;stroke-miterlimit:10;}
	.st32{fill:#FFFFFF;stroke:#222222;stroke-width:10;stroke-miterlimit:10;}
	.st33{fill:#FFFFFF;stroke:#231F20;stroke-width:10;stroke-miterlimit:10;}
	.st34{fill:#FFD700;stroke:#333333;stroke-width:10;stroke-miterlimit:10;}
	.st35{fill:none;stroke:#231F20;stroke-width:10;stroke-miterlimit:10;}
	.st36{fill:#FFE573;stroke:#333333;stroke-width:10;stroke-miterlimit:10;}
	.st37{fill:#D01700;stroke:#231F20;stroke-width:10;stroke-miterlimit:10;}
	.st38{fill:none;stroke:#F7941D;stroke-width:10;stroke-miterlimit:10;}
	.st39{fill:#FFD700;stroke:#231F20;stroke-width:10;stroke-linejoin:round;stroke-miterlimit:10;}
	.st40{fill:none;stroke:#FFD700;stroke-width:10;stroke-miterlimit:10;}
	.st41{fill:#FFEB00;}
	.st42{fill:#231F20;}
</style>
<g id="Layer_1">
</g>
<g id="Layer_2">
	<path class="st41" d="M154.59,139.7H45.01c-21.26,0-38.49-17.23-38.49-38.49v0c0-21.26,17.23-38.49,38.49-38.49h109.58
		c21.26,0,38.49,17.23,38.49,38.49v0C193.08,122.46,175.85,139.7,154.59,139.7z"/>
	<path class="st42" d="M84.94,98.85c0,12.05-12.07,21.82-26.96,21.82c-4.09,0-7.98-0.74-11.45-2.07l-15.82,6.51l5.51-13.4
		c-3.28-3.61-5.2-8.05-5.2-12.86c0-12.04,12.07-21.8,26.96-21.8C72.87,77.05,84.94,86.81,84.94,98.85z"/>
	<g>
		<path d="M99.92,93.88c0-3.06-0.1-5.53-0.2-7.8h3.9l0.2,4.1h0.1c1.78-2.91,4.59-4.64,8.49-4.64c5.78,0,10.12,4.89,10.12,12.14
			c0,8.59-5.23,12.83-10.86,12.83c-3.16,0-5.92-1.38-7.35-3.75h-0.1v12.98h-4.29V93.88z M104.21,100.25c0,0.64,0.1,1.23,0.2,1.78
			c0.79,3.01,3.41,5.08,6.52,5.08c4.59,0,7.26-3.75,7.26-9.23c0-4.79-2.52-8.89-7.11-8.89c-2.96,0-5.73,2.12-6.57,5.38
			c-0.15,0.54-0.3,1.19-0.3,1.78V100.25z"/>
		<path d="M141.23,109.97l-0.34-3.01h-0.15c-1.33,1.88-3.9,3.55-7.31,3.55c-4.84,0-7.31-3.41-7.31-6.86c0-5.78,5.13-8.93,14.36-8.89
			v-0.49c0-1.97-0.54-5.53-5.43-5.53c-2.22,0-4.54,0.69-6.22,1.78l-0.99-2.86c1.97-1.28,4.84-2.12,7.85-2.12
			c7.31,0,9.08,4.99,9.08,9.77v8.93c0,2.07,0.1,4.1,0.39,5.73H141.23z M140.59,97.78c-4.74-0.1-10.12,0.74-10.12,5.38
			c0,2.81,1.88,4.15,4.1,4.15c3.11,0,5.08-1.97,5.78-4c0.15-0.44,0.25-0.94,0.25-1.38V97.78z"/>
		<path d="M152.98,86.08l5.23,14.12c0.54,1.58,1.14,3.46,1.53,4.89h0.1c0.44-1.43,0.94-3.26,1.53-4.99l4.74-14.02h4.59l-6.52,17.03
			c-3.11,8.19-5.23,12.39-8.19,14.96c-2.12,1.88-4.25,2.62-5.33,2.81l-1.09-3.65c1.09-0.35,2.52-1.04,3.8-2.12
			c1.18-0.94,2.67-2.62,3.65-4.84c0.2-0.44,0.35-0.79,0.35-1.04c0-0.25-0.1-0.59-0.3-1.14l-8.84-22.02H152.98z"/>
	</g>
</g>
</svg>
